<?xml version="1.0" encoding="UTF-8"?>
<svg version="1.1" xmlns="http://www.w3.org/2000/svg" width="512" height="512">
<path d="M0 0 C1.01790619 0.00215515 2.03581238 0.0043103 3.08456421 0.00653076 C17.69363523 0.05620146 32.02575853 0.30709809 46.375 3.3125 C47.34985352 3.51117676 48.32470703 3.70985352 49.32910156 3.91455078 C97.7109774 14.03517194 141.69928269 35.9516877 177.375 70.3125 C178.3640332 71.26068604 178.3640332 71.26068604 179.37304688 72.22802734 C188.86130305 81.37247479 197.6012044 90.66984009 205.375 101.3125 C206.23306152 102.46355017 207.09113451 103.61459177 207.94921875 104.765625 C213.98736829 112.95680614 219.34595521 121.47054105 224.375 130.3125 C224.73948242 130.94430176 225.10396484 131.57610352 225.47949219 132.22705078 C247.08534998 169.97532572 256.85198095 212.74189997 256.6875 255.9375 C256.68534485 256.95540619 256.6831897 257.97331238 256.68096924 259.02206421 C256.63129854 273.63113523 256.38040191 287.96325853 253.375 302.3125 C253.07698486 303.77478027 253.07698486 303.77478027 252.77294922 305.26660156 C242.65232806 353.6484774 220.7358123 397.63678269 186.375 433.3125 C185.74287598 433.97185547 185.11075195 434.63121094 184.45947266 435.31054688 C175.31502521 444.79880305 166.01765991 453.5387044 155.375 461.3125 C154.22394983 462.17056152 153.07290823 463.02863451 151.921875 463.88671875 C143.73224019 469.92427396 135.22961724 475.30707302 126.375 480.3125 C125.66778809 480.7146875 124.96057617 481.116875 124.23193359 481.53125 C101.09654164 494.5566741 75.92537591 503.30551461 49.9375 508.625 C49.21860596 508.77235596 48.49971191 508.91971191 47.7590332 509.0715332 C33.08339502 511.86090125 18.55831162 512.66142619 3.64770508 512.62817383 C0.70811513 512.6250221 -2.2304558 512.64854926 -5.16992188 512.67382812 C-18.54306192 512.71848737 -31.43916711 511.51301542 -44.625 509.3125 C-46.33055054 509.03031616 -46.33055054 509.03031616 -48.07055664 508.74243164 C-91.33802759 500.97044532 -132.38793216 480.98345309 -165.625 452.3125 C-166.37007813 451.67828125 -167.11515625 451.0440625 -167.8828125 450.390625 C-181.38779833 438.57948485 -194.05918743 425.82889772 -204.625 411.3125 C-205.48149066 410.16255169 -206.33826433 409.01281411 -207.1953125 407.86328125 C-213.23534209 399.67315742 -218.61867614 391.16870382 -223.625 382.3125 C-224.0271875 381.60528809 -224.429375 380.89807617 -224.84375 380.16943359 C-237.8691741 357.03404164 -246.61801461 331.86287591 -251.9375 305.875 C-252.08485596 305.15610596 -252.23221191 304.43721191 -252.3840332 303.6965332 C-255.35789088 288.05024391 -255.99800362 272.57681954 -255.9375 256.6875 C-255.93534485 255.66959381 -255.9331897 254.65168762 -255.93096924 253.60293579 C-255.88129854 238.99386477 -255.63040191 224.66174147 -252.625 210.3125 C-252.42632324 209.33764648 -252.22764648 208.36279297 -252.02294922 207.35839844 C-241.90232806 158.9765226 -219.9858123 114.98821731 -185.625 79.3125 C-184.99287598 78.65314453 -184.36075195 77.99378906 -183.70947266 77.31445312 C-174.56502521 67.82619695 -165.26765991 59.0862956 -154.625 51.3125 C-153.47394983 50.45443848 -152.32290823 49.59636549 -151.171875 48.73828125 C-142.98224019 42.70072604 -134.47961724 37.31792698 -125.625 32.3125 C-124.91778809 31.9103125 -124.21057617 31.508125 -123.48193359 31.09375 C-100.34654164 18.0683259 -75.17537591 9.31948539 -49.1875 4 C-48.46860596 3.85264404 -47.74971191 3.70528809 -47.0090332 3.5534668 C-31.36274391 0.57960912 -15.88931954 -0.06050362 0 0 Z " fill="#DBEFFF" transform="translate(255.625,-0.3125)"/>
<path d="M0 0 C2.63016161 2.1727422 4.47336894 3.94673788 6 7 C6.09289299 8.4279011 6.12373909 9.8600753 6.12304783 11.29099464 C6.12503888 12.1971762 6.12702993 13.10335775 6.12908131 14.03699934 C6.12471205 15.53989423 6.12471205 15.53989423 6.12025452 17.07315063 C6.12110894 18.13249955 6.12196337 19.19184846 6.12284368 20.28329885 C6.12449943 23.85636322 6.11897555 27.42938132 6.11352539 31.00244141 C6.11324351 33.55442809 6.11340126 36.10641485 6.1139679 38.65840149 C6.1141961 44.16467509 6.11134763 49.67093362 6.10573006 55.17720413 C6.0976132 63.13840709 6.09499965 71.09960432 6.09374207 79.06081097 C6.09155184 91.97641628 6.08489254 104.8920153 6.07543945 117.80761719 C6.06626458 130.35611947 6.05918411 142.90462004 6.05493164 155.453125 C6.05466892 156.22623141 6.05440619 156.99933782 6.05413551 157.79587169 C6.0528305 161.67420487 6.05156678 165.55253805 6.05032361 169.43087125 C6.03995191 201.62058542 6.02233438 233.81029183 6 266 C6.54575782 265.99848112 7.09151564 265.99696224 7.65381157 265.99539733 C39.99545889 265.90589691 72.33707343 265.83725981 104.67881603 265.79573868 C108.56159371 265.79073582 112.44437113 265.78555853 116.32714844 265.78027344 C117.48664148 265.77869957 117.48664148 265.77869957 118.66955863 265.77709392 C131.18797272 265.75968577 143.70631338 265.72814584 156.2246839 265.69138882 C169.06842923 265.65399077 181.91213609 265.63176656 194.75593364 265.62364602 C202.6821197 265.61815587 210.60809821 265.60081202 218.53422038 265.56833413 C224.61064944 265.5447029 230.68689973 265.54217728 236.76338005 265.54756927 C239.25711153 265.54646702 241.75085071 265.53848644 244.24453545 265.5231781 C247.64525845 265.5033221 251.04508829 265.50804565 254.4458313 265.51898193 C255.43610986 265.50733057 256.42638842 265.4956792 257.44667542 265.48367476 C263.26259874 265.53434408 266.56421783 266.13266517 271 270 C272.3899408 272.7798816 272.18488204 274.9186326 272 278 C271.15330598 280.54008206 270.555841 281.63715935 268.3125 283.1015625 C265.34669266 284.25381873 262.92216907 284.1939602 259.75 284.125 C258.67234375 284.10695313 257.5946875 284.08890625 256.484375 284.0703125 C255.25460937 284.03550781 255.25460937 284.03550781 254 284 C254.03480469 285.22976563 254.03480469 285.22976563 254.0703125 286.484375 C254.08835937 287.56203125 254.10640625 288.6396875 254.125 289.75 C254.15980469 291.35101563 254.15980469 291.35101563 254.1953125 292.984375 C254.00122458 295.98109254 253.67232902 297.54134409 252 300 C248.24952518 302.50031654 246.44143734 302.53603554 242 302 C239.0625 300.3125 239.0625 300.3125 237 297 C237 292.71 237 288.42 237 284 C225.12 284 213.24 284 201 284 C201 288.29 201 292.58 201 297 C197.95217739 300.93986825 196.25685337 301.80497103 191.375 302.5625 C187.48927584 301.91487931 186.31991378 301.12296086 184 298 C183 295 183 295 183 284 C171.12 284 159.24 284 147 284 C147 288.29 147 292.58 147 297 C144.9375 300.3125 144.9375 300.3125 142 302 C138.5 302.6875 138.5 302.6875 135 302 C132.0625 299.75 132.0625 299.75 130 296 C130 292.04 130 288.08 130 284 C118.12 284 106.24 284 94 284 C94 288.29 94 292.58 94 297 C89.15384615 301.84615385 89.15384615 301.84615385 85.1875 302.375 C82 302 82 302 79.125 300.3125 C77 297 77 297 77 284 C65.12 284 53.24 284 41 284 C41 288.29 41 292.58 41 297 C38.9375 300.3125 38.9375 300.3125 36 302 C32.5 302.625 32.5 302.625 29 302 C26.36983839 299.8272578 24.52663106 298.05326212 23 295 C22.92966231 293.12620395 22.9156978 291.24998898 22.9375 289.375 C22.94652344 288.37210937 22.95554688 287.36921875 22.96484375 286.3359375 C22.97644531 285.56507813 22.98804688 284.79421875 23 284 C21.67609253 284.03927612 21.67609253 284.03927612 20.32543945 284.0793457 C17.0358842 284.16480275 13.74751578 284.22735745 10.45727539 284.2746582 C9.03618709 284.29973147 7.61522687 284.33379999 6.19458008 284.37719727 C4.14632538 284.43817858 2.09978117 284.46627762 0.05078125 284.48828125 C-1.79519653 284.52755737 -1.79519653 284.52755737 -3.6784668 284.56762695 C-8.02543863 283.82475966 -9.44328173 282.56028993 -12 279 C-12.56762695 275.6784668 -12.56762695 275.6784668 -12.48828125 271.94921875 C-12.48120651 271.29041214 -12.47413177 270.63160553 -12.46684265 269.95283508 C-12.43900979 267.86319966 -12.37630819 265.77631524 -12.3125 263.6875 C-12.28740205 262.26501286 -12.26459148 260.84248341 -12.24414062 259.41992188 C-12.18922446 255.94573139 -12.10303685 252.4731345 -12 249 C-13.24390503 249.03262939 -13.24390503 249.03262939 -14.51293945 249.06591797 C-15.59792725 249.08283691 -16.68291504 249.09975586 -17.80078125 249.1171875 C-18.87755127 249.13894043 -19.95432129 249.16069336 -21.0637207 249.18310547 C-24 249 -24 249 -27.1875 247.125 C-29.53224722 244.37598602 -29.96157883 243.33938697 -30.375 239.6875 C-30 236 -30 236 -28.3125 233.0625 C-25 231 -25 231 -12 231 C-12 219.12 -12 207.24 -12 195 C-16.29 195 -20.58 195 -25 195 C-29.84615385 190.15384615 -29.84615385 190.15384615 -30.375 186.1875 C-30 183 -30 183 -28.3125 180.125 C-25 178 -25 178 -12 178 C-12 166.12 -12 154.24 -12 142 C-16.29 142 -20.58 142 -25 142 C-28.64233395 139.11362215 -29.70492926 137.44584663 -30.625 132.9375 C-29.79188716 129.02186963 -28.03093154 127.52577629 -25 125 C-23 124 -23 124 -12 124 C-12 112.45 -12 100.9 -12 89 C-15.96 89 -19.92 89 -24 89 C-27.07365786 87.19196596 -28.43019732 86.13960536 -30 83 C-30.43023798 79.12785818 -30.31669086 77.47503629 -28.125 74.1875 C-26 72 -26 72 -24 71 C-20.04 71 -16.08 71 -12 71 C-12 59.12 -12 47.24 -12 35 C-16.29 35 -20.58 35 -25 35 C-28.3125 32.9375 -28.3125 32.9375 -30 30 C-30.75714464 25.75999003 -30.45675792 23.79509713 -28.3125 20.0625 C-23.14836229 16.8470935 -17.92751342 17.60946105 -12 18 C-12.05800781 17.11957031 -12.11601563 16.23914063 -12.17578125 15.33203125 C-12.54324427 5.87248322 -12.54324427 5.87248322 -9.9375 1.6875 C-6.20490287 -0.45675792 -4.24000997 -0.75714464 0 0 Z " fill="#1FA1FF" transform="translate(135,105)"/>
<path d="M0 0 C0.76183594 -0.01933594 1.52367187 -0.03867188 2.30859375 -0.05859375 C5.53245462 0.65099088 6.55320283 1.82045245 8.5625 4.4375 C9.0691659 5.67212432 9.53342792 6.92461127 9.96484375 8.1875 C11.54719883 12.73165833 13.08175605 16.99790671 16.5625 20.4375 C21.71627497 22.75326002 27.19636982 23.12570253 32.76171875 23.63671875 C36.53810077 24.05699935 37.49445258 24.38532745 40.66015625 26.8125 C42.5625 29.4375 42.5625 29.4375 43.3125 32.75 C42.08581427 38.78120483 37.99303906 42.51930054 33.24609375 46.265625 C30.88263949 48.2221541 29.15343828 49.80513972 27.5625 52.4375 C27.4959082 55.85587882 28.06876009 58.77775091 28.8203125 62.109375 C29.88555725 66.88615671 30.26987383 71.5785155 29.5625 76.4375 C27.6656157 79.09313802 26.41764945 80.00992527 23.5625 81.4375 C17.2212266 82.19174838 13.38843941 79.39586064 8.21679688 76.19335938 C4.85161744 74.23927265 3.01592868 73.43348736 -0.96875 73.46875 C-5.44824899 74.71978125 -9.25571955 76.7383638 -13.27539062 78.99804688 C-17.16810948 81.08482069 -20.0248064 82.04636384 -24.4375 81.4375 C-27.3125 78.8125 -27.3125 78.8125 -29.4375 75.4375 C-29.4375 73.4575 -29.4375 71.4775 -29.4375 69.4375 C-37.0275 73.0675 -44.6175 76.6975 -52.4375 80.4375 C-52.52 82.70625 -52.6025 84.975 -52.6875 87.3125 C-53.31544561 98.6536155 -57.26195246 107.58830452 -65.5 115.5625 C-73.7650876 122.5663567 -82.82451358 124.45961483 -93.484375 123.95703125 C-101.80263576 122.86382109 -109.0973767 118.92193544 -114.4375 112.4375 C-121.06737526 114.54050453 -127.3166615 117.3272404 -133.59765625 120.28295898 C-134.989407 120.92696888 -136.39004126 121.55212199 -137.79882812 122.15795898 C-146.4034693 125.62565595 -146.4034693 125.62565595 -151.74560547 132.71289062 C-152.22611957 135.99083051 -152.35002241 139.13123226 -152.4375 142.4375 C-154.54713485 149.09665469 -160.45462618 154.13248305 -166.34765625 157.54296875 C-172.62224222 160.28729485 -179.54639032 160.62724845 -186.08203125 158.62890625 C-193.35719532 155.39922512 -199.50167859 150.03269574 -202.62890625 142.609375 C-204.52933674 135.15454622 -204.98103985 126.34984023 -201.375 119.375 C-197.00185423 112.85213369 -191.23854215 108.02684645 -183.4375 106.4375 C-176.07761193 105.72236918 -170.10926421 106.22075654 -163.4375 109.4375 C-162.73625 110.035625 -162.035 110.63375 -161.3125 111.25 C-160.69375 111.641875 -160.075 112.03375 -159.4375 112.4375 C-154.93654864 111.23458944 -150.93529357 109.29142692 -146.796875 107.1796875 C-146.18861877 106.87177277 -145.58036255 106.56385803 -144.95367432 106.24661255 C-143.02961296 105.27246102 -141.10826161 104.29313997 -139.1875 103.3125 C-136.64291274 102.01366075 -134.09574792 100.72009211 -131.546875 99.4296875 C-130.42249023 98.85589355 -129.29810547 98.28209961 -128.13964844 97.69091797 C-125.4375 96.4375 -125.4375 96.4375 -123.4375 96.4375 C-123.59605469 95.87160156 -123.75460938 95.30570312 -123.91796875 94.72265625 C-125.98681583 85.62284014 -123.82074702 77.08274503 -119.08203125 69.17578125 C-112.94545726 60.53851223 -104.94836401 54.57220159 -94.4375 52.4375 C-83.16974464 51.40956442 -74.31150827 54.57161861 -65.4375 61.4375 C-64.7775 62.0975 -64.1175 62.7575 -63.4375 63.4375 C-58.80450822 63.11343063 -55.26790996 61.58864963 -51.1640625 59.49609375 C-50.01035156 58.91279297 -48.85664063 58.32949219 -47.66796875 57.72851562 C-46.46605579 57.11085226 -45.26423398 56.49301151 -44.0625 55.875 C-42.83761546 55.25251504 -41.61235823 54.63076284 -40.38671875 54.00976562 C-37.39990349 52.49283977 -34.4170868 50.96856192 -31.4375 49.4375 C-31.84379639 48.96481689 -32.25009277 48.49213379 -32.66870117 48.00512695 C-33.20470947 47.38081787 -33.74071777 46.75650879 -34.29296875 46.11328125 C-34.82301514 45.49622314 -35.35306152 44.87916504 -35.89916992 44.2434082 C-42.25882688 36.77754842 -42.25882688 36.77754842 -42.8125 32.625 C-42.4375 29.4375 -42.4375 29.4375 -40.5625 26.6875 C-35.80055836 23.25890202 -30.50281584 22.39438726 -24.66015625 22.4765625 C-21.29706106 22.35392509 -19.4044684 22.08725535 -16.4375 20.4375 C-12.94582064 15.89714731 -10.66338513 10.54952629 -8.4296875 5.30688477 C-6.3470214 1.38292456 -4.43583074 0.00748032 0 0 Z " fill="#3F75FF" transform="translate(362.4375,105.5625)"/>
<path d="M0 0 C0.84437622 -0.0157608 1.68875244 -0.03152161 2.55871582 -0.04776001 C3.90733704 -0.03257828 3.90733704 -0.03257828 5.28320312 -0.01708984 C6.68644836 -0.02426529 6.68644836 -0.02426529 8.11804199 -0.03158569 C10.09156989 -0.03498095 12.06515431 -0.02580473 14.03857422 -0.00488281 C17.05498968 0.02188867 20.0676843 -0.0046427 23.08398438 -0.03662109 C25.00456548 -0.03331693 26.92514428 -0.02691055 28.84570312 -0.01708984 C29.74478394 -0.027211 30.64386475 -0.03733215 31.57019043 -0.04776001 C32.41456665 -0.03199921 33.25894287 -0.0162384 34.12890625 0 C34.86661255 0.00397797 35.60431885 0.00795593 36.36437988 0.01205444 C40.08577531 1.08601039 41.33505928 2.45234572 43.56445312 5.64697266 C44.31221696 9.81402792 44.2367422 13.93678371 44.19555664 18.16064453 C44.20271194 19.43106094 44.20986725 20.70147736 44.21723938 22.01039124 C44.23573373 25.48785939 44.22282827 28.96455957 44.20314908 32.44199562 C44.18674448 36.08450821 44.19557798 39.72697284 44.20066833 43.36950684 C44.20518731 49.48604578 44.18933198 55.60227873 44.16137695 61.71875 C44.12932564 68.78587693 44.12934123 75.85245202 44.14659172 82.91961813 C44.16246674 89.72362772 44.15571708 96.52743538 44.13865471 103.33143616 C44.13178991 106.22450652 44.13281069 109.11741474 44.14019966 112.01048279 C44.14929771 116.05173288 44.12530633 120.0921335 44.09790039 124.13330078 C44.10442627 125.33241592 44.11095215 126.53153107 44.11767578 127.76698303 C44.02439633 135.84471739 44.02439633 135.84471739 41.71861267 139.86657715 C37.50401159 143.34991098 32.90045289 142.83970234 27.69726562 142.88525391 C26.82552704 142.89332565 25.95378845 142.9013974 25.05563354 142.90971375 C23.21142559 142.92353927 21.36719221 142.93426827 19.52294922 142.94213867 C16.70686331 142.95936615 13.89194728 143.00326671 11.07617188 143.04736328 C9.28321174 143.05748943 7.49024165 143.06600578 5.69726562 143.07275391 C4.85753204 143.09026199 4.01779846 143.10777008 3.15261841 143.12580872 C-0.86731391 143.11093638 -2.93892101 142.95058268 -6.44384766 140.80786133 C-9.5087595 137.48259352 -9.56395834 134.72729948 -9.58944702 130.384552 C-9.59804749 129.29381378 -9.60664795 128.20307556 -9.61550903 127.07928467 C-9.61976898 125.88232971 -9.62402893 124.68537476 -9.62841797 123.45214844 C-9.63659546 122.19177765 -9.64477295 120.93140686 -9.65319824 119.63284302 C-9.67938435 115.45267873 -9.6947198 111.27250458 -9.70898438 107.09228516 C-9.71434496 105.65264759 -9.71972247 104.21301009 -9.72511673 102.77337265 C-9.74673808 96.78557515 -9.76547549 90.79778033 -9.77673912 84.80995369 C-9.79298509 76.23038324 -9.8261864 67.65126513 -9.88313997 59.0718652 C-9.92183102 53.03780615 -9.94137062 47.00386815 -9.94665968 40.9696883 C-9.95031361 37.36605219 -9.96233847 33.76289892 -9.99476242 30.15939713 C-10.03041606 26.13951919 -10.02647448 22.12061508 -10.01904297 18.10058594 C-10.04365097 16.3112262 -10.04365097 16.3112262 -10.0687561 14.48571777 C-10.00791834 6.46728594 -10.00791834 6.46728594 -7.17630005 2.40905762 C-4.45215563 0.65765075 -3.181312 0.01715473 0 0 Z " fill="#2395FF" transform="translate(345.435546875,211.35302734375)"/>
<path d="M0 0 C1.34302437 -0.00855011 1.34302437 -0.00855011 2.71318054 -0.01727295 C4.61045142 -0.0267289 6.50773876 -0.03325929 8.4050293 -0.03710938 C11.30221405 -0.04680139 14.19868537 -0.07781331 17.09570312 -0.109375 C18.93879787 -0.11590643 20.78189769 -0.12115635 22.625 -0.125 C23.48974442 -0.1373468 24.35448883 -0.1496936 25.24543762 -0.16241455 C29.98388552 -0.14494497 33.1781462 0.09003482 37.01171875 3.203125 C38.51313146 6.20595043 38.1939049 9.30725582 38.22045898 12.6027832 C38.23513466 13.7469722 38.23513466 13.7469722 38.25010681 14.91427612 C38.28007471 17.44413502 38.30144955 19.97394103 38.3203125 22.50390625 C38.32688433 23.36740377 38.33345615 24.2309013 38.34022713 25.12056541 C38.37282636 29.69095598 38.39727619 34.26132317 38.41674805 38.83178711 C38.43456734 42.6159858 38.46939568 46.39944016 38.51928711 50.18334961 C38.57943698 54.75041663 38.61021635 59.31679302 38.61992073 63.88423729 C38.62848538 65.62461568 38.64732855 67.36497513 38.67666435 69.10512733 C38.71554513 71.5426655 38.71661949 73.97750901 38.70874023 76.4152832 C38.72874084 77.13287308 38.74874146 77.85046295 38.76934814 78.58979797 C38.7292527 81.3558631 38.51972677 83.55437962 36.78267193 85.77266407 C33.92745786 88.32429938 31.48283391 89.82895691 27.64624023 89.83422852 C26.84198105 89.84676163 26.03772186 89.85929474 25.20909119 89.87220764 C24.35891922 89.85894943 23.50874725 89.84569122 22.6328125 89.83203125 C21.74312271 89.83444321 20.85343292 89.83685516 19.93678284 89.83934021 C18.06335983 89.83836422 16.18990709 89.82502988 14.31665039 89.80004883 C11.45424262 89.76568531 8.59491561 89.77941556 5.73242188 89.79882812 C3.90753899 89.79193052 2.08266404 89.7822589 0.2578125 89.76953125 C-1.0204818 89.77697105 -1.0204818 89.77697105 -2.32460022 89.78456116 C-6.35370012 89.70491366 -8.49718101 89.50408344 -12.00366211 87.35522461 C-15.46252154 83.60447471 -15.14653917 79.78928918 -15.1652832 74.96533203 C-15.1718544 74.23165405 -15.1784256 73.49797607 -15.18519592 72.74206543 C-15.20490094 70.31502172 -15.21658411 67.88803976 -15.2265625 65.4609375 C-15.23063803 64.63145473 -15.23471355 63.80197197 -15.23891258 62.94735336 C-15.25975957 58.55849202 -15.27406824 54.16966184 -15.28344727 49.78076172 C-15.2945199 45.24890472 -15.32893322 40.71753762 -15.36861897 36.18585396 C-15.3947633 32.69940274 -15.40313705 29.21306879 -15.40672874 25.72652817 C-15.41159894 24.05597493 -15.42322533 22.38542708 -15.44176674 20.71496964 C-15.46611685 18.37615311 -15.46520157 16.03861152 -15.45825195 13.69970703 C-15.47106201 13.01174042 -15.48387207 12.3237738 -15.49707031 11.61495972 C-15.44597037 6.89034578 -14.31321133 4.52541623 -10.98828125 1.203125 C-7.5948531 -0.49358908 -3.73405613 0.01822344 0 0 Z " fill="#1C9EFF" transform="translate(261.98828125,264.796875)"/>
<path d="M0 0 C1.29980553 -0.01142029 1.29980553 -0.01142029 2.62586975 -0.02307129 C4.45391974 -0.03385024 6.28203121 -0.03673437 8.11010742 -0.03222656 C10.89802298 -0.03125423 13.68318461 -0.07289821 16.47070312 -0.1171875 C18.25129637 -0.12239506 20.03189914 -0.12508268 21.8125 -0.125 C22.64079819 -0.14139526 23.46909637 -0.15779053 24.32249451 -0.17468262 C28.50911324 -0.12500609 31.16827201 0.20004974 34.48266602 2.88085938 C38.5763836 7.13553203 38.1474882 10.58654297 38.17578125 16.23828125 C38.18148132 17.11143478 38.1871814 17.98458832 38.1930542 18.88420105 C38.2025097 20.73439317 38.20904036 22.58460218 38.21289062 24.43481445 C38.2225819 27.25957844 38.2535938 30.08361044 38.28515625 32.90820312 C38.29168777 34.70572485 38.29693766 36.50325177 38.30078125 38.30078125 C38.31312805 39.14365189 38.32547485 39.98652252 38.3381958 40.85493469 C38.32055969 45.52090022 38.10902537 48.74752153 34.97265625 52.46875 C32.18101265 54.14288396 30.07292623 54.7262265 26.83422852 54.77514648 C25.62761314 54.79912758 25.62761314 54.79912758 24.3966217 54.82359314 C23.53612717 54.82895584 22.67563263 54.83431854 21.7890625 54.83984375 C20.45028297 54.85338646 20.45028297 54.85338646 19.0844574 54.86720276 C17.19916126 54.88169228 15.31381499 54.89058877 13.4284668 54.89428711 C10.54845421 54.90619502 7.67057695 54.95540121 4.79101562 55.00585938 C2.95704168 55.01532281 1.12305461 55.02255823 -0.7109375 55.02734375 C-1.56940781 55.04687607 -2.42787811 55.06640839 -3.31236267 55.08653259 C-7.74079612 55.05320413 -9.47050093 54.91313479 -13.04711914 52.05883789 C-16.44129689 47.61933206 -16.18823329 44.08455977 -16.1953125 38.6640625 C-16.2003051 37.35077469 -16.2003051 37.35077469 -16.20539856 36.01095581 C-16.21046645 34.15656053 -16.21280693 32.30215611 -16.21264648 30.44775391 C-16.21482958 27.6121513 -16.23297728 24.7769398 -16.25195312 21.94140625 C-16.25488775 20.14062633 -16.25687208 18.33984456 -16.2578125 16.5390625 C-16.26499802 15.69103058 -16.27218353 14.84299866 -16.27958679 13.9692688 C-16.27497185 12.77815994 -16.27497185 12.77815994 -16.27026367 11.56298828 C-16.27168869 10.86730743 -16.27311371 10.17162659 -16.27458191 9.4548645 C-15.8443321 5.99858017 -14.61913831 3.96288198 -11.96655273 1.74804688 C-7.92635291 -0.01045857 -4.36369497 0.00105853 0 0 Z " fill="#1AA6FF" transform="translate(174.02734375,299.53125)"/>
</svg>
