<svg xmlns="http://www.w3.org/2000/svg" viewBox="0 0 64 64" width="64" height="64">
  <defs>
    <linearGradient id="purpleGrad" x1="0%" y1="0%" x2="100%" y2="100%">
      <stop offset="0%" style="stop-color:#7C3AED;stop-opacity:1" />
      <stop offset="100%" style="stop-color:#5B21B6;stop-opacity:1" />
    </linearGradient>
  </defs>
  <rect width="64" height="64" rx="12" fill="url(#purpleGrad)"/>
  <!-- QR Code Icon -->
  <g transform="translate(16, 16)" fill="white">
    <!-- Top-left square -->
    <rect x="0" y="0" width="12" height="12" rx="2"/>
    <rect x="3" y="3" width="6" height="6" rx="1" fill="#7C3AED"/>

    <!-- Top-right square -->
    <rect x="20" y="0" width="12" height="12" rx="2"/>
    <rect x="23" y="3" width="6" height="6" rx="1" fill="#7C3AED"/>

    <!-- Bottom-left square -->
    <rect x="0" y="20" width="12" height="12" rx="2"/>
    <rect x="3" y="23" width="6" height="6" rx="1" fill="#7C3AED"/>

    <!-- Pattern elements -->
    <rect x="16" y="16" width="4" height="4" rx="1"/>
    <rect x="22" y="16" width="4" height="4" rx="1"/>
    <rect x="28" y="16" width="4" height="4" rx="1"/>
    <rect x="16" y="22" width="4" height="4" rx="1"/>
    <rect x="22" y="22" width="4" height="4" rx="1"/>
    <rect x="16" y="28" width="4" height="4" rx="1"/>
    <rect x="28" y="22" width="4" height="4" rx="1"/>
    <rect x="28" y="28" width="4" height="4" rx="1"/>
  </g>
</svg>

